<svg viewBox="0 0 330 200" xmlns="http://www.w3.org/2000/svg"><g><g><g><g><g><line x1="61.953125" y1="177" x2="56.953125" y2="177" style="visibility: inherit;" fill="rgb(0, 0, 0)" stroke="rgb(204, 204, 204)" stroke-width="1px"></line><line x1="61.953125" y1="159.3" x2="56.953125" y2="159.3" style="visibility: inherit;" fill="rgb(0, 0, 0)" stroke="rgb(204, 204, 204)" stroke-width="1px"></line><line x1="61.953125" y1="141.6" x2="56.953125" y2="141.6" style="visibility: inherit;" fill="rgb(0, 0, 0)" stroke="rgb(204, 204, 204)" stroke-width="1px"></line><line x1="61.953125" y1="123.89999999999999" x2="56.953125" y2="123.89999999999999" style="visibility: inherit;" fill="rgb(0, 0, 0)" stroke="rgb(204, 204, 204)" stroke-width="1px"></line><line x1="61.953125" y1="106.2" x2="56.953125" y2="106.2" style="visibility: inherit;" fill="rgb(0, 0, 0)" stroke="rgb(204, 204, 204)" stroke-width="1px"></line><line x1="61.953125" y1="88.5" x2="56.953125" y2="88.5" style="visibility: inherit;" fill="rgb(0, 0, 0)" stroke="rgb(204, 204, 204)" stroke-width="1px"></line><line x1="61.953125" y1="70.8" x2="56.953125" y2="70.8" style="visibility: inherit;" fill="rgb(0, 0, 0)" stroke="rgb(204, 204, 204)" stroke-width="1px"></line><line x1="61.953125" y1="53.10000000000001" x2="56.953125" y2="53.10000000000001" style="visibility: inherit;" fill="rgb(0, 0, 0)" stroke="rgb(204, 204, 204)" stroke-width="1px"></line><line x1="61.953125" y1="35.39999999999999" x2="56.953125" y2="35.39999999999999" style="visibility: inherit;" fill="rgb(0, 0, 0)" stroke="rgb(204, 204, 204)" stroke-width="1px"></line><line x1="61.953125" y1="17.699999999999996" x2="56.953125" y2="17.699999999999996" style="visibility: inherit;" fill="rgb(0, 0, 0)" stroke="rgb(204, 204, 204)" stroke-width="1px"></line><line x1="61.953125" y1="0" x2="56.953125" y2="0" style="visibility: inherit;" fill="rgb(0, 0, 0)" stroke="rgb(204, 204, 204)" stroke-width="1px"></line></g><g transform="translate(51.953125, 0)"><text x="0" y="177" dx="0em" dy="0.3em" style="text-anchor: end; visibility: hidden; font-family: Roboto, sans-serif; font-size: 12px; font-weight: 200;" fill="rgb(33, 33, 33)" stroke="none" stroke-width="1px">-1e+4</text><text x="0" y="159.3" dx="0em" dy="0.3em" style="text-anchor: end; visibility: inherit; font-family: Roboto, sans-serif; font-size: 12px; font-weight: 200;" fill="rgb(33, 33, 33)" stroke="none" stroke-width="1px">-9e+3</text><text x="0" y="141.6" dx="0em" dy="0.3em" style="text-anchor: end; visibility: hidden; font-family: Roboto, sans-serif; font-size: 12px; font-weight: 200;" fill="rgb(33, 33, 33)" stroke="none" stroke-width="1px">-8e+3</text><text x="0" y="123.89999999999999" dx="0em" dy="0.3em" style="text-anchor: end; visibility: inherit; font-family: Roboto, sans-serif; font-size: 12px; font-weight: 200;" fill="rgb(33, 33, 33)" stroke="none" stroke-width="1px">-7e+3</text><text x="0" y="106.2" dx="0em" dy="0.3em" style="text-anchor: end; visibility: hidden; font-family: Roboto, sans-serif; font-size: 12px; font-weight: 200;" fill="rgb(33, 33, 33)" stroke="none" stroke-width="1px">-6e+3</text><text x="0" y="88.5" dx="0em" dy="0.3em" style="text-anchor: end; visibility: inherit; font-family: Roboto, sans-serif; font-size: 12px; font-weight: 200;" fill="rgb(33, 33, 33)" stroke="none" stroke-width="1px">-5e+3</text><text x="0" y="70.8" dx="0em" dy="0.3em" style="text-anchor: end; visibility: hidden; font-family: Roboto, sans-serif; font-size: 12px; font-weight: 200;" fill="rgb(33, 33, 33)" stroke="none" stroke-width="1px">-4e+3</text><text x="0" y="53.10000000000001" dx="0em" dy="0.3em" style="text-anchor: end; visibility: inherit; font-family: Roboto, sans-serif; font-size: 12px; font-weight: 200;" fill="rgb(33, 33, 33)" stroke="none" stroke-width="1px">-3e+3</text><text x="0" y="35.39999999999999" dx="0em" dy="0.3em" style="text-anchor: end; visibility: hidden; font-family: Roboto, sans-serif; font-size: 12px; font-weight: 200;" fill="rgb(33, 33, 33)" stroke="none" stroke-width="1px">-2e+3</text><text x="0" y="17.699999999999996" dx="0em" dy="0.3em" style="text-anchor: end; visibility: inherit; font-family: Roboto, sans-serif; font-size: 12px; font-weight: 200;" fill="rgb(33, 33, 33)" stroke="none" stroke-width="1px">-1e+3</text><text x="0" y="0" dx="0em" dy="0.3em" style="text-anchor: end; visibility: hidden; font-family: Roboto, sans-serif; font-size: 12px; font-weight: 200;" fill="rgb(33, 33, 33)" stroke="none" stroke-width="1px">0</text></g><line x1="61.953125" y1="0" x2="61.953125" y2="177" fill="rgb(0, 0, 0)" stroke="rgb(204, 204, 204)" stroke-width="1px"></line></g></g><g transform="translate(61, 0)" clip-path="url(#clip_0)"><clipPath id="clip_0"><rect width="268" height="177"></rect></clipPath><g><g><g><line x1="0" y1="0" x2="0" y2="177" fill="rgb(0, 0, 0)" stroke="rgb(66, 66, 66)" stroke-width="1px" opacity="0.25"></line><line x1="26.8046875" y1="0" x2="26.8046875" y2="177" fill="rgb(0, 0, 0)" stroke="rgb(66, 66, 66)" stroke-width="1px" opacity="0.25"></line><line x1="53.609375" y1="0" x2="53.609375" y2="177" fill="rgb(0, 0, 0)" stroke="rgb(66, 66, 66)" stroke-width="1px" opacity="0.25"></line><line x1="80.4140625" y1="0" x2="80.4140625" y2="177" fill="rgb(0, 0, 0)" stroke="rgb(66, 66, 66)" stroke-width="1px" opacity="0.25"></line><line x1="107.21875" y1="0" x2="107.21875" y2="177" fill="rgb(0, 0, 0)" stroke="rgb(66, 66, 66)" stroke-width="1px" opacity="0.25"></line><line x1="134.0234375" y1="0" x2="134.0234375" y2="177" fill="rgb(0, 0, 0)" stroke="rgb(66, 66, 66)" stroke-width="1px" opacity="0.25"></line><line x1="160.828125" y1="0" x2="160.828125" y2="177" fill="rgb(0, 0, 0)" stroke="rgb(66, 66, 66)" stroke-width="1px" opacity="0.25"></line><line x1="187.6328125" y1="0" x2="187.6328125" y2="177" fill="rgb(0, 0, 0)" stroke="rgb(66, 66, 66)" stroke-width="1px" opacity="0.25"></line><line x1="214.4375" y1="0" x2="214.4375" y2="177" fill="rgb(0, 0, 0)" stroke="rgb(66, 66, 66)" stroke-width="1px" opacity="0.25"></line><line x1="241.2421875" y1="0" x2="241.2421875" y2="177" fill="rgb(0, 0, 0)" stroke="rgb(66, 66, 66)" stroke-width="1px" opacity="0.25"></line><line x1="268.046875" y1="0" x2="268.046875" y2="177" fill="rgb(0, 0, 0)" stroke="rgb(66, 66, 66)" stroke-width="1px" opacity="0.25"></line></g><g><line x1="0" y1="177" x2="268.046875" y2="177" fill="rgb(0, 0, 0)" stroke="rgb(66, 66, 66)" stroke-width="1px" opacity="0.25"></line><line x1="0" y1="159.3" x2="268.046875" y2="159.3" fill="rgb(0, 0, 0)" stroke="rgb(66, 66, 66)" stroke-width="1px" opacity="0.25"></line><line x1="0" y1="141.6" x2="268.046875" y2="141.6" fill="rgb(0, 0, 0)" stroke="rgb(66, 66, 66)" stroke-width="1px" opacity="0.25"></line><line x1="0" y1="123.89999999999999" x2="268.046875" y2="123.89999999999999" fill="rgb(0, 0, 0)" stroke="rgb(66, 66, 66)" stroke-width="1px" opacity="0.25"></line><line x1="0" y1="106.2" x2="268.046875" y2="106.2" fill="rgb(0, 0, 0)" stroke="rgb(66, 66, 66)" stroke-width="1px" opacity="0.25"></line><line x1="0" y1="88.5" x2="268.046875" y2="88.5" fill="rgb(0, 0, 0)" stroke="rgb(66, 66, 66)" stroke-width="1px" opacity="0.25"></line><line x1="0" y1="70.8" x2="268.046875" y2="70.8" fill="rgb(0, 0, 0)" stroke="rgb(66, 66, 66)" stroke-width="1px" opacity="0.25"></line><line x1="0" y1="53.10000000000001" x2="268.046875" y2="53.10000000000001" fill="rgb(0, 0, 0)" stroke="rgb(66, 66, 66)" stroke-width="1px" opacity="0.25"></line><line x1="0" y1="35.39999999999999" x2="268.046875" y2="35.39999999999999" fill="rgb(0, 0, 0)" stroke="rgb(66, 66, 66)" stroke-width="1px" opacity="0.25"></line><line x1="0" y1="17.699999999999996" x2="268.046875" y2="17.699999999999996" fill="rgb(0, 0, 0)" stroke="rgb(66, 66, 66)" stroke-width="1px" opacity="0.25"></line><line x1="0" y1="0" x2="268.046875" y2="0" fill="rgb(0, 0, 0)" stroke="rgb(66, 66, 66)" stroke-width="1px" opacity="0.25"></line></g></g></g><g><g><line x1="0" y1="0" x2="268.046875" y2="0" fill="rgb(0, 0, 0)" stroke="rgb(153, 153, 153)" stroke-width="1.5px"></line></g></g><g><g><line x1="26.8046875" y1="0" x2="26.8046875" y2="177" fill="rgb(0, 0, 0)" stroke="rgb(153, 153, 153)" stroke-width="1.5px"></line></g></g><g><g><g><g><g><path stroke="rgb(255, 112, 67)" stroke-width="2px" d="M28.947722265625,162.1686791015625L31.092097265625,124.60079279282857L33.236472265625,112.02208778784032L35.380847265625,135.31903727781798L37.525222265625004,149.79904359091296L39.669597265624994,158.1932285334742L41.813972265625,137.60915483354637L43.958347265625,123.75452983262964L46.102722265625005,136.70614876576494L48.247097265624994,148.8355680074228L50.391472265625,132.31651198315902L52.535847265625,144.7303858155128L54.680222265625005,130.28473287885183L56.824597265624995,144.19020196128986L58.968972265625,153.81004450065214L61.113347265625,141.63049779384178L63.257722265625006,145.6491601330426L65.402097265625,117.85044722932308L67.54647226562501,91.662350586852L69.690847265625,78.04900153939724L71.83522226562499,64.15706256994794L73.979597265625,53.71801305327545L76.123972265625,46.26666782192435L78.268347265625,45.14130824295569L80.412722265625,44.1304630312778L82.557097265625,59.185088713289424L84.701472265625,73.86448719728186L86.845847265625,71.96043163786514L88.990222265625,64.1678615052292L91.134597265625,64.0697415111224L93.278972265625,53.84190054468153L95.423347265625,43.012186095028994L97.56772226562501,47.98618006819984L99.712097265625,42.36528437810517L101.856472265625,38.80493404412178L104.000847265625,38.32876107939589L106.145222265625,35.994311897578L108.289597265625,37.39820988987469L110.433972265625,36.0893826184806L112.578347265625,33.43129951594419L114.72272226562501,31.908801711710872L116.867097265625,30.255071182378593L119.01147226562499,35.08472034830693L121.155847265625,31.30159601970195L123.300222265625,31.967115546642603L125.44459726562499,34.661118266484294L127.588972265625,36.12385793125891L129.733347265625,34.141374187617416L131.877722265625,31.11407928886819L134.022097265625,29.45094401260941L136.166472265625,25.34102355361569L138.310847265625,25.393080731112022L140.455222265625,24.988539830805642L142.599597265625,24.83679311339708L144.743972265625,25.395245297576896L146.88834726562501,26.061136124196974L149.032722265625,24.42251782278209L151.177097265625,22.574395660421434L153.321472265625,23.558576334746334L155.465847265625,22.71049187386548L157.61022226562503,21.49060491898677L159.75459726562502,23.319309256962534L161.898972265625,23.48073285007552L164.043347265625,23.497823039118092L166.18772226562498,21.061513041843018L168.33209726562498,20.817838857379225L170.476472265625,21.510553291555265L172.620847265625,21.90002897725787L174.765222265625,21.603762789806755L176.909597265625,25.034309361549877L179.053972265625,22.96021362191738L181.19834726562502,21.35973746012905L183.342722265625,20.33362850728851L185.487097265625,22.011301099769227L187.631472265625,22.485667007404366L189.775847265625,21.710688393721775L191.920222265625,23.00545392274906L194.06459726562503,24.55145291304057L196.208972265625,22.694388224067126L198.353347265625,21.420847071631666L200.497722265625,20.357929362312262L202.64209726562498,19.823635018094937L204.786472265625,19.587099993487904L206.930847265625,20.471284094256713L209.075222265625,19.62838058936784L211.219597265625,19.036331657129406L213.363972265625,18.73119216265348L215.508347265625,19.504580455959374L217.65272226562502,19.913010868846094L219.797097265625,19.10471930420638L221.941472265625,18.735030422524353L224.085847265625,18.23730311805744L226.230222265625,18.187417097043586L228.374597265625,18.233677815092186L230.518972265625,18.196298695208764L232.663347265625,18.1162219711295L234.807722265625,18.370875434032605L236.95209726562499,18.79070009284178" style="fill: none;" fill="none"></path></g></g></g></g><g opacity="0.2"><g><g><g><path stroke="rgb(255, 112, 67)" stroke-width="2px" d="M28.947722265625,162.1686791015625L31.092097265625,99.35517319335936L33.236472265625,97.88885610351562L35.380847265625,168.56491289062498L37.525222265625004,173.41559443359375L39.669597265624994,173.03428388671875L41.813972265625,99.32057695312501L43.958347265625,97.126053515625L46.102722265625005,162.13766953125L48.247097265624994,172.9916068359375L50.391472265625,99.108176953125L52.535847265625,169.84271806640623L54.680222265625005,100.93975532226563L56.824597265624995,172.5170947265625L58.968972265625,173.44350996093752L61.113347265625,116.74149946289063L63.257722265625006,153.8682779296875L65.402097265625,60.96317746582031L67.54647226562501,38.05059228515625L69.690847265625,50.172875463867186L71.83522226562499,35.70556699218751L73.979597265625,32.335760961914055L76.123972265625,31.00292849121094L78.268347265625,42.83594025878906L80.412722265625,42.05961203613282L82.557097265625,90.02722133789064L84.701472265625,103.93837558593751L86.845847265625,68.05952490234375L88.990222265625,48.20283002929687L91.134597265625,63.86871716308593L93.278972265625,32.887438330078126L95.423347265625,20.824577197265615L97.56772226562501,58.17677138671875L99.712097265625,30.849326110839833L101.856472265625,31.510567602539055L104.000847265625,37.35318808593749L106.145222265625,31.21154088134766L108.289597265625,40.274487524414056L110.433972265625,33.40788358154296L112.578347265625,27.985471728515616L114.72272226562501,28.78953830566406L116.867097265625,26.86694062499999L119.01147226562499,44.979610766601574L121.155847265625,23.550805004882818L123.300222265625,33.33061893310546L125.44459726562499,40.180538378906256L127.588972265625,39.120690380859365L129.733347265625,30.079700207519537L131.877722265625,24.911816601562506L134.022097265625,26.043544921874993L136.166472265625,16.920698730468743L138.310847265625,25.49973446044922L140.455222265625,24.159724328613276L142.599597265625,24.525897399902338L144.743972265625,26.539391235351566L146.88834726562501,27.425400256347658L149.032722265625,21.065348620605462L151.177097265625,18.787999035644532L153.321472265625,25.574946496582026L155.465847265625,20.97295297851563L157.61022226562503,18.991324328613274L159.75459726562502,27.065923022460943L161.898972265625,23.811454357910147L164.043347265625,23.532837084960935L166.18772226562498,16.070048657226568L168.33209726562498,20.318603942871086L170.476472265625,22.929773107910158L172.620847265625,22.697979162597658L174.765222265625,20.99677840576171L176.909597265625,32.06274624023437L179.053972265625,18.710846740722648L181.19834726562502,18.080713128662108L183.342722265625,18.231356506347648L185.487097265625,25.448483972167963L187.631472265625,23.45753862304688L189.775847265625,20.12292733154297L191.920222265625,25.65814427490235L194.06459726562503,27.718865478515628L196.208972265625,18.889670324707037L198.353347265625,18.81164080810548L200.497722265625,18.180244299316414L202.64209726562498,18.728983190917976L204.786472265625,19.102491650390633L206.930847265625,22.282783227539063L209.075222265625,17.90145633544922L211.219597265625,17.82335335693359L213.363972265625,18.106028320312504L215.508347265625,21.089083300781244L217.65272226562502,20.74979512939453L219.797097265625,17.44870731811524L221.941472265625,17.977619055175776L224.085847265625,17.21756912841797L226.230222265625,18.085211590576172L228.374597265625,18.328455871582033L230.518972265625,18.11971708374023L232.663347265625,17.952162341308604L234.807722265625,18.892604479980474L236.95209726562499,19.650828662109376" style="fill: none;" fill="none"></path></g></g></g></g></g></g><g transform="translate(61, 177)" clip-path="url(#clip_1)"><clipPath id="clip_1"><rect width="268" height="23"></rect></clipPath><g><g><line x1="0" y1="0" x2="0" y2="5" style="visibility: inherit;" fill="rgb(0, 0, 0)" stroke="rgb(204, 204, 204)" stroke-width="1px"></line><line x1="26.8046875" y1="0" x2="26.8046875" y2="5" style="visibility: inherit;" fill="rgb(0, 0, 0)" stroke="rgb(204, 204, 204)" stroke-width="1px"></line><line x1="53.609375" y1="0" x2="53.609375" y2="5" style="visibility: inherit;" fill="rgb(0, 0, 0)" stroke="rgb(204, 204, 204)" stroke-width="1px"></line><line x1="80.4140625" y1="0" x2="80.4140625" y2="5" style="visibility: inherit;" fill="rgb(0, 0, 0)" stroke="rgb(204, 204, 204)" stroke-width="1px"></line><line x1="107.21875" y1="0" x2="107.21875" y2="5" style="visibility: inherit;" fill="rgb(0, 0, 0)" stroke="rgb(204, 204, 204)" stroke-width="1px"></line><line x1="134.0234375" y1="0" x2="134.0234375" y2="5" style="visibility: inherit;" fill="rgb(0, 0, 0)" stroke="rgb(204, 204, 204)" stroke-width="1px"></line><line x1="160.828125" y1="0" x2="160.828125" y2="5" style="visibility: inherit;" fill="rgb(0, 0, 0)" stroke="rgb(204, 204, 204)" stroke-width="1px"></line><line x1="187.6328125" y1="0" x2="187.6328125" y2="5" style="visibility: inherit;" fill="rgb(0, 0, 0)" stroke="rgb(204, 204, 204)" stroke-width="1px"></line><line x1="214.4375" y1="0" x2="214.4375" y2="5" style="visibility: inherit;" fill="rgb(0, 0, 0)" stroke="rgb(204, 204, 204)" stroke-width="1px"></line><line x1="241.2421875" y1="0" x2="241.2421875" y2="5" style="visibility: inherit;" fill="rgb(0, 0, 0)" stroke="rgb(204, 204, 204)" stroke-width="1px"></line><line x1="268.046875" y1="0" x2="268.046875" y2="5" style="visibility: inherit;" fill="rgb(0, 0, 0)" stroke="rgb(204, 204, 204)" stroke-width="1px"></line></g><g transform="translate(0, 8)"><text x="0" y="0" dx="0em" dy="0.95em" style="text-anchor: middle; visibility: hidden; font-family: Roboto, sans-serif; font-size: 12px; font-weight: 200;" fill="rgb(33, 33, 33)" stroke="none" stroke-width="1px">-20k</text><text x="26.8046875" y="0" dx="0em" dy="0.95em" style="text-anchor: middle; visibility: inherit; font-family: Roboto, sans-serif; font-size: 12px; font-weight: 200;" fill="rgb(33, 33, 33)" stroke="none" stroke-width="1px">0</text><text x="53.609375" y="0" dx="0em" dy="0.95em" style="text-anchor: middle; visibility: hidden; font-family: Roboto, sans-serif; font-size: 12px; font-weight: 200;" fill="rgb(33, 33, 33)" stroke="none" stroke-width="1px">20k</text><text x="80.4140625" y="0" dx="0em" dy="0.95em" style="text-anchor: middle; visibility: inherit; font-family: Roboto, sans-serif; font-size: 12px; font-weight: 200;" fill="rgb(33, 33, 33)" stroke="none" stroke-width="1px">40k</text><text x="107.21875" y="0" dx="0em" dy="0.95em" style="text-anchor: middle; visibility: hidden; font-family: Roboto, sans-serif; font-size: 12px; font-weight: 200;" fill="rgb(33, 33, 33)" stroke="none" stroke-width="1px">60k</text><text x="134.0234375" y="0" dx="0em" dy="0.95em" style="text-anchor: middle; visibility: inherit; font-family: Roboto, sans-serif; font-size: 12px; font-weight: 200;" fill="rgb(33, 33, 33)" stroke="none" stroke-width="1px">80k</text><text x="160.828125" y="0" dx="0em" dy="0.95em" style="text-anchor: middle; visibility: hidden; font-family: Roboto, sans-serif; font-size: 12px; font-weight: 200;" fill="rgb(33, 33, 33)" stroke="none" stroke-width="1px">100k</text><text x="187.6328125" y="0" dx="0em" dy="0.95em" style="text-anchor: middle; visibility: inherit; font-family: Roboto, sans-serif; font-size: 12px; font-weight: 200;" fill="rgb(33, 33, 33)" stroke="none" stroke-width="1px">120k</text><text x="214.4375" y="0" dx="0em" dy="0.95em" style="text-anchor: middle; visibility: hidden; font-family: Roboto, sans-serif; font-size: 12px; font-weight: 200;" fill="rgb(33, 33, 33)" stroke="none" stroke-width="1px">140k</text><text x="241.2421875" y="0" dx="0em" dy="0.95em" style="text-anchor: middle; visibility: inherit; font-family: Roboto, sans-serif; font-size: 12px; font-weight: 200;" fill="rgb(33, 33, 33)" stroke="none" stroke-width="1px">160k</text><text x="268.046875" y="0" dx="0em" dy="0.95em" style="text-anchor: middle; visibility: hidden; font-family: Roboto, sans-serif; font-size: 12px; font-weight: 200;" fill="rgb(33, 33, 33)" stroke="none" stroke-width="1px">180k</text></g><line x1="0" y1="0" x2="268.046875" y2="0" fill="rgb(0, 0, 0)" stroke="rgb(204, 204, 204)" stroke-width="1px"></line></g></g></g></g></svg>